<svg xmlns="http://www.w3.org/2000/svg" xmlns:xlink="http://www.w3.org/1999/xlink" width="1920" height="3240" viewBox="0 0 1920 3240">
  <defs>
    <style>
      .cls-1, .cls-2, .cls-3 {
        fill-rule: evenodd;
      }

      .cls-1 {
        fill: url(#linear-gradient);
      }

      .cls-2 {
        fill: url(#linear-gradient-2);
      }

      .cls-3 {
        fill: url(#linear-gradient-3);
      }
    </style>
    <linearGradient id="linear-gradient" x1="173.281" y1="1494.94" x2="173.281" y2="-243" gradientUnits="userSpaceOnUse">
      <stop offset="0" stop-color="#ff544f"/>
      <stop offset="0.5" stop-color="#fad126" stop-opacity="0.996"/>
      <stop offset="1" stop-color="#ff544f"/>
    </linearGradient>
    <linearGradient id="linear-gradient-2" x1="1759.05" y1="2205.62" x2="1759.05" y2="949.812" gradientUnits="userSpaceOnUse">
      <stop offset="0" stop-color="#d70a84"/>
      <stop offset="1" stop-color="#51127f"/>
    </linearGradient>
    <linearGradient id="linear-gradient-3" x1="218.703" y1="3240.41" x2="218.703" y2="2306.16" gradientUnits="userSpaceOnUse">
      <stop offset="0" stop-color="#015eea"/>
      <stop offset="1" stop-color="#00c0fa"/>
    </linearGradient>
  </defs>
  <g id="Artboard_1" data-name="Artboard 1">
    <path class="cls-1" d="M-286.035,1164.44C-317.942,1347.05-60.1,1488.1,87.952,1494.68c57,2.53,150.313-12.77,248.993-95.27,144.6-120.89,252.239-319.46,285.244-632.058,40.536-383.92-10.523-991.694-185.34-1009.217C204.628-265.143,324.1,71.556,136.469,500.672,17.678,772.35-213.606,846.282-286.035,1164.44Z"/>
    <path class="cls-2" d="M1662,996c-206.91-69.422-350.63-57.433-444,15-102.27,79.34-153.61,235.95-123,369,52.98,230.3,330.85,259.86,375,489,21.78,113.06-61.36,250.26-9,297,75.4,67.3,295.39-129.92,495-69,91,27.77,133.15,116.95,204,108,225.94-28.53,398.34-893.76,150-1050-88.38-55.6-194.6,16.39-336-15C1839.21,1110.08,1792.9,1039.92,1662,996Z"/>
    <path class="cls-3" d="M450,2398c-124.7-78.15-335.947-137.03-444-45-93.32,79.48-37.71,214.84-129,333-56.09,72.6-151.41,85.45-162,147-28.361,164.84,470.108,547.63,774,354,153.175-97.6,279.755-231.86,219-498C682.134,2575.69,545.766,2458.02,450,2398Z"/>
  </g>
</svg>
